<?xml version="1.0" encoding="utf-8"?>
<!-- Generator: Adobe Illustrator 18.0.0, SVG Export Plug-In . SVG Version: 6.00 Build 0)  -->
<!DOCTYPE svg PUBLIC "-//W3C//DTD SVG 1.1//EN" "http://www.w3.org/Graphics/SVG/1.1/DTD/svg11.dtd">
<svg version="1.1" id="Layer_1" xmlns="http://www.w3.org/2000/svg" xmlns:xlink="http://www.w3.org/1999/xlink" x="0px" y="0px"
	 viewBox="0 0 131.4 20.4" enable-background="new 0 0 131.4 20.4" xml:space="preserve">
<g>
	<rect x="0" y="0" fill="#E30613" width="131.4" height="20.4"/>
	<line fill="none" stroke="#FFFFFF" stroke-width="0.438" stroke-miterlimit="10" x1="19.1" y1="2" x2="19.1" y2="18.6"/>
	<polygon fill="#FFFFFF" points="3.8,4.2 9.5,10.3 3.4,16.3 9.1,16.3 15,10.3 9.4,4.2 	"/>
	<g>
		<path fill="#FFFFFF" d="M33.6,11.2c-0.3,1.7-1.4,2.8-3.2,2.8c-2.4,0-3.5-2.2-3.5-4.4c0-2.1,1.1-4.4,3.5-4.4c1.7,0,2.9,1,3.2,2.8
			l-1.6,0.2c-0.2-0.9-0.6-1.7-1.6-1.7c-1.5,0-1.8,1.9-1.8,3c0,1.1,0.3,3,1.8,3c1,0,1.4-0.8,1.6-1.7L33.6,11.2z"/>
		<path fill="#FFFFFF" d="M41.4,9.6c0,2.1-1.1,4.4-3.5,4.4c-2.4,0-3.5-2.2-3.5-4.4c0-2.1,1.1-4.4,3.5-4.4
			C40.4,5.3,41.4,7.5,41.4,9.6z M36.2,9.6c0,1.1,0.3,3,1.8,3s1.8-1.9,1.8-3c0-1.1-0.3-3-1.8-3S36.2,8.5,36.2,9.6z"/>
		<path fill="#FFFFFF" d="M45,5.4l2.5,5.6h0V5.4h1.7v8.5h-1.8l-3.2-6.8h0v6.8h-1.7V5.4H45z"/>
		<path fill="#FFFFFF" d="M56.1,6.8h-2.2v7h-1.7v-7h-2.2V5.4h6.1V6.8z"/>
		<path fill="#FFFFFF" d="M63.2,13.9h-1.7l-0.6-2.1h-2.5l-0.6,2.1h-1.7l2.4-8.5h2.3L63.2,13.9z M59.6,6.9L59.6,6.9l-0.9,3.6h1.8
			L59.6,6.9z"/>
		<path fill="#FFFFFF" d="M70.2,11.2C70,12.9,68.8,14,67,14c-2.4,0-3.5-2.2-3.5-4.4c0-2.1,1.1-4.4,3.5-4.4c1.7,0,2.9,1,3.2,2.8
			l-1.6,0.2c-0.2-0.9-0.6-1.7-1.6-1.7c-1.5,0-1.8,1.9-1.8,3c0,1.1,0.3,3,1.8,3c1,0,1.4-0.8,1.6-1.7L70.2,11.2z"/>
		<path fill="#FFFFFF" d="M76.9,6.8h-2.2v7H73v-7h-2.2V5.4h6.1V6.8z"/>
		<path fill="#FFFFFF" d="M87,5.4v5.9c0,1.7-1.2,2.7-3,2.7c-1.8,0-3-1-3-2.7V5.4h1.7v5.3c0,1.4,0.4,1.9,1.3,1.9
			c0.9,0,1.3-0.4,1.3-1.9V5.4H87z"/>
		<path fill="#FFFFFF" d="M92.1,7.9c-0.2-0.6-0.5-1.2-1.2-1.2c-0.6,0-1,0.4-1,1c0,1.7,4,0.6,4,3.7c0,1-0.8,2.6-2.9,2.6
			c-1.6,0-2.8-0.8-3-2.4l1.7-0.3c0.2,0.7,0.5,1.3,1.3,1.3c0.7,0,1.2-0.3,1.2-1.1c0-1.7-4-0.7-4-3.6c0-1.5,1.3-2.6,2.8-2.6
			c1.4,0,2.5,0.9,2.7,2.4L92.1,7.9z"/>
		<path fill="#FFFFFF" d="M100.8,5.4l2.5,5.6h0V5.4h1.7v8.5h-1.8L100,7.1h0v6.8h-1.7V5.4H100.8z"/>
		<path fill="#FFFFFF" d="M113.1,9.6c0,2.1-1.1,4.4-3.5,4.4c-2.4,0-3.5-2.2-3.5-4.4c0-2.1,1.1-4.4,3.5-4.4
			C112,5.3,113.1,7.5,113.1,9.6z M107.9,9.6c0,1.1,0.3,3,1.8,3s1.8-1.9,1.8-3c0-1.1-0.3-3-1.8-3S107.9,8.5,107.9,9.6z"/>
		<path fill="#FFFFFF" d="M121.1,13.9h-1.7L118.2,8h0l-1.1,5.9h-1.7l-1.8-8.5h1.7l1,6h0l1.1-6h1.9l1.1,6h0l1.1-6h1.7L121.1,13.9z"/>
	</g>
</g>
</svg>
