<?xml version="1.0" standalone="no"?>
<!DOCTYPE svg PUBLIC "-//W3C//DTD SVG 1.1//EN" "http://www.w3.org/Graphics/SVG/1.1/DTD/svg11.dtd" >
<svg>
<metadata>
Created by FontForge 20090914 at Tue Aug 21 00:15:18 2012
 By www-data
&#194;&#169; 1999 Ray Larabie. This font is freeware. Read attached text file for details. Info &#38; updates visit www.larabiefonts.com. Donations gratefully accepted at www.larabiefonts.com/donation.html. Also visit my commercial type foundry at www.typodermic.com. This font was updated in 2004.
</metadata>
<defs>
<font id="ZeroTwos" horiz-adv-x="725" >
  <font-face 
    font-family="Zero Twos"
    font-weight="400"
    font-stretch="normal"
    units-per-em="1000"
    panose-1="0 0 4 0 0 0 0 0 0 0"
    ascent="800"
    descent="-200"
    x-height="587"
    cap-height="587"
    bbox="-26 -235 1476 780"
    underline-thickness="20"
    underline-position="-123"
    unicode-range="U+0020-U+2122"
  />
<missing-glyph horiz-adv-x="287" 
 />
    <glyph glyph-name=".notdef" horiz-adv-x="287" 
 />
    <glyph glyph-name="space" unicode=" " horiz-adv-x="287" 
 />
    <glyph glyph-name="exclam" unicode="!" horiz-adv-x="250" 
d="M154 176h-58l-19 157c-6.66699 52 -10 136.667 -10 254h116v-176l-10 -78zM125 -22c-22 0 -40.833 7.99902 -56.5 23.999s-23.5 34.667 -23.5 56c0 22 7.5 41 22.5 57s34.167 24 57.5 24c22 0 40.833 -7.83301 56.5 -23.5s23.5 -34.5 23.5 -56.5
c0 -21.333 -7.5 -40.166 -22.5 -56.499s-34.167 -24.5 -57.5 -24.5z" />
    <glyph glyph-name="quotedbl" unicode="&#x22;" horiz-adv-x="335" 
d="M316 724l-29 -234h-73l-15 234h117zM141 724l-29 -234h-72l-15 234h116z" />
    <glyph glyph-name="numbersign" unicode="#" horiz-adv-x="652" 
d="M617 117h-116v-117h-117v117h-116v-117h-116v117h-116v118h116v117h-116v118h116v117h116v-117h116v117h117v-117h116v-118h-116v-117h116v-118zM384 235v117h-116v-117h116z" />
    <glyph glyph-name="dollar" unicode="$" horiz-adv-x="575" 
d="M313 0l0.000976562 -117.001h-58v117h-189v117h189v118h-102c-28.667 0 -53 7.66699 -73 23s-33.333 36 -40 62c-2 10 -3 20.667 -3 32v118c0 30.667 10.833 57.834 32.5 81.501s49.5 35.5 83.5 35.5h102v117h58v-117h174v-117h-174v-118h101
c33.333 0 61.166 -11.333 83.499 -34s33.5 -50.334 33.5 -83.001v-118c0 -33.333 -10 -60.666 -30 -81.999c-21.333 -23.333 -50.333 -35 -87 -35h-101zM255.001 351.999v118h-102v-118h102zM414.001 116.999v118h-101v-118h101z" />
    <glyph glyph-name="percent" unicode="%" horiz-adv-x="672" 
d="M534 117c-32.667 0 -60.5 11.833 -83.5 35.5s-34.5 51.5 -34.5 83.5c0 32.667 11.167 61 33.5 85s50.5 36 84.5 36c32.667 0 60.5 -11.833 83.5 -35.5s34.5 -51.5 34.5 -83.5s-10.667 -60 -32 -84c-23.333 -24.667 -52 -37 -86 -37zM574 517l-366 -400h-109l366 400h109z
M139 277c-32.667 0 -60.667 11.668 -84 35.001s-35 51.333 -35 84c0 32 11.333 60.167 34 84.5s51 36.5 85 36.5c32.667 0 60.5 -11.833 83.5 -35.5s34.5 -51.834 34.5 -84.501c0 -32 -10.667 -59.667 -32 -83c-23.333 -24.667 -52 -37 -86 -37zM534 277.001
c-11.333 0 -20.666 -4 -27.999 -12s-11 -17.333 -11 -28s3.83301 -20 11.5 -28s16.834 -12 27.501 -12c11.333 0 20.666 4 27.999 12s11 17.333 11 28s-3.83301 20 -11.5 28s-16.834 12 -27.501 12zM139 437.001c-11.333 0 -20.8311 -4 -28.498 -12s-11.5 -17.333 -11.5 -28
c0 -11.333 4 -20.833 12 -28.5s17.333 -11.5 28 -11.5c11.333 0 20.666 4 27.999 12s11 17.333 11 28s-3.83301 20 -11.5 28s-16.834 12 -27.501 12z" />
    <glyph glyph-name="ampersand" unicode="&#x26;" horiz-adv-x="693" 
d="M669 235h-57.999v-118c0 -32.667 -10.5 -60.334 -31.5 -83.001s-49.5 -34 -85.5 -34h-348c-34 0 -62 11.333 -84 34s-33 50.334 -33 83.001v353c0 34 10.167 62 30.5 84s49.166 33 86.499 33h290v-117h-290v-118h348v59h117v-59h58v-117zM494.001 117v118h-348v-118h348z
" />
    <glyph glyph-name="quotesingle" unicode="'" horiz-adv-x="165" 
d="M32 502l-18.001 23.001c29.333 15.333 46.333 33.666 51 54.999c-4 -0.666992 -6.66699 -1 -8 -1c-26 0 -43 17.333 -51 52c-2 6 -3 12.333 -3 19c0 22.667 7.83301 42.167 23.5 58.5s35.834 24.5 60.501 24.5c41.333 0 66.666 -19.333 75.999 -58
c2 -8 2.66699 -16.333 2 -25c0 -38 -13 -69.333 -39 -94c-19.333 -18 -50.666 -36 -93.999 -54z" />
    <glyph glyph-name="parenleft" unicode="(" horiz-adv-x="228" 
d="M217 -167h-117c-20.667 62.667 -37.667 122 -51 178c-23.333 101.333 -35 199 -35 293c0 137.333 28.667 293.333 86 468h117c-58 -174.667 -87 -330.667 -87 -468c0 -94 12 -191.667 36 -293c12.667 -56 29.667 -115.333 51 -178z" />
    <glyph glyph-name="parenright" unicode=")" horiz-adv-x="300" 
d="M158 -167h-116c57.333 174 86 330 86 468c0 94 -11.667 191.333 -35 292c-13.333 56 -30.333 115.667 -51 179h116c21.333 -63.333 38.333 -123 51 -179c24 -100.667 36 -198 36 -292c0 -138 -29 -294 -87 -468z" />
    <glyph glyph-name="asterisk" unicode="*" horiz-adv-x="331" 
d="M312 313l-68 -40l67 -40l-34 -61l-69 40v-78h-70v77l-66 -39l-35 61l68 40l-69 40l35 60l67 -39v81h70v-82l69 40z" />
    <glyph glyph-name="plus" unicode="+" horiz-adv-x="404" 
d="M379 235h-116v-118h-116v118h-116v117h116v118h116v-118h116v-117z" />
    <glyph glyph-name="comma" unicode="," horiz-adv-x="219" 
d="M57 -92l-18.001 22.998c28.667 15.333 45.667 33.666 51 54.999h-8c-26.667 0 -44 17 -52 51c-1.33301 6.66699 -2 13.334 -2 20.001c0 22 7.83301 41.167 23.5 57.5s35.834 24.5 60.501 24.5c41.333 0 66.666 -19.333 75.999 -58c1.33301 -7.33301 2 -15.666 2 -24.999
c0 -37.333 -13 -68.666 -39 -93.999c-19.333 -18 -50.666 -36 -93.999 -54z" />
    <glyph glyph-name="hyphen" unicode="-" horiz-adv-x="404" 
d="M380 235h-349v117h349v-117z" />
    <glyph glyph-name="period" unicode="." horiz-adv-x="214" 
d="M107 -22c-22 0 -40.833 7.99902 -56.5 23.999s-23.5 34.667 -23.5 56c0 22 7.5 41 22.5 57s34.167 24 57.5 24c22 0 40.833 -7.83301 56.5 -23.5s23.5 -34.5 23.5 -56.5c0 -21.333 -7.66699 -40.166 -23 -56.499s-34.333 -24.5 -57 -24.5z" />
    <glyph glyph-name="slash" unicode="/" horiz-adv-x="460" 
d="M448 587l-330 -587h-90l329 587h91z" />
    <glyph glyph-name="zero" unicode="0" horiz-adv-x="668" 
d="M506 0l-349 -0.000976562c-62 0 -99.333 26 -112 78c-2.66699 12 -4 25 -4 39v353c0 30.667 11 57.834 33 81.501s49.667 35.5 83 35.5h349c32.667 0 60.167 -11.5 82.5 -34.5s33.5 -50.5 33.5 -82.5v-353c0 -78 -38.667 -117 -116 -117zM506 116.999v353h-349v-353h349z
" />
    <glyph glyph-name="one" unicode="1" horiz-adv-x="418" 
d="M382 0h-349v117h116v353h-116v117h232v-470h117v-117z" />
    <glyph glyph-name="two" unicode="2" horiz-adv-x="669" 
d="M622 0l-581 -0.000976562v235c0 32.667 10.5 60.334 31.5 83.001s49.167 34 84.5 34h349v118h-465v117h465c62 0 99.333 -27.667 112 -83c2.66699 -10.667 4 -22 4 -34v-114c0 -32.667 -10 -60.667 -30 -84c-22 -24.667 -50.667 -37 -86 -37h-349v-118h465v-117z" />
    <glyph glyph-name="three" unicode="3" horiz-adv-x="671" 
d="M510 0h-465v117h465v118h-465v117h465v118h-465v117h465c32.667 0 60.167 -11.5 82.5 -34.5s33.5 -50.5 33.5 -82.5v-88c0 -41.333 -18.667 -72.333 -56 -93c37.333 -21.333 56 -49.333 56 -84v-88c0 -78 -38.667 -117 -116 -117z" />
    <glyph glyph-name="four" unicode="4" horiz-adv-x="709" 
d="M681 235h-73v-235h-116v235h-465v352h116v-235h349v235h116v-235h73v-117z" />
    <glyph glyph-name="five" unicode="5" horiz-adv-x="689" 
d="M515 0h-465v117h465v118h-465v352h581v-117h-465v-118h349c31.333 0 58.5 -11.667 81.5 -35s34.5 -50.666 34.5 -81.999v-118c0 -34.667 -9.33301 -62.334 -28 -83.001c-20.667 -22.667 -50 -34 -88 -34z" />
    <glyph glyph-name="six" unicode="6" horiz-adv-x="689" 
d="M515 0l-349 0.00195312c-33.333 0 -61 11.167 -83 33.5s-33 50.166 -33 83.499v353c0 31.333 10.667 58.666 32 81.999s49.333 35 84 35h465v-117h-465v-118h349c31.333 0 58.5 -11.667 81.5 -35s34.5 -50.666 34.5 -81.999v-118c0 -34.667 -9.33301 -62.334 -28 -83.001
c-20.667 -22.667 -50 -34 -88 -34zM515 117.002v118h-349v-118h349z" />
    <glyph glyph-name="seven" unicode="7" horiz-adv-x="661" 
d="M618 470l-421 -470h-160l430 470h-430v117h581v-117z" />
    <glyph glyph-name="eight" unicode="8" horiz-adv-x="671" 
d="M510 0l-349 -0.000976562c-62.667 0 -100 26 -112 78c-2.66699 12 -4 25 -4 39v88c0 34.667 18.667 62.667 56 84c-37.333 20.667 -56 51.667 -56 93v88c0 30.667 10.833 57.834 32.5 81.501s49.5 35.5 83.5 35.5h349c32.667 0 60.167 -11.5 82.5 -34.5
s33.5 -50.5 33.5 -82.5v-88c0 -41.333 -18.667 -72.333 -56 -93c37.333 -21.333 56 -49.333 56 -84v-88c0 -78 -38.667 -117 -116 -117zM510 351.999v118h-349v-118h349zM510 116.999v118h-349v-118h349z" />
    <glyph glyph-name="nine" unicode="9" horiz-adv-x="666" 
d="M507 0l-465 -0.000976562v117h465v118h-349c-31.333 0 -58.5 11.667 -81.5 35s-34.5 50.666 -34.5 81.999v118c0 34.667 9.83301 62.834 29.5 84.501s48.5 32.5 86.5 32.5h349c33.333 0 61 -11.167 83 -33.5s33 -50.166 33 -83.499v-353c0 -32 -10.333 -59 -31 -81
c-22 -24 -50.333 -36 -85 -36zM507 351.999v118h-349v-118h349z" />
    <glyph glyph-name="colon" unicode=":" horiz-adv-x="212" 
d="M108 330c-22 0 -40.833 7.99902 -56.5 23.999s-23.5 34.667 -23.5 56c0 22 7.5 41.167 22.5 57.5s34.167 24.5 57.5 24.5c22 0 40.833 -8 56.5 -24s23.5 -35 23.5 -57c0 -21.333 -7.66699 -40.166 -23 -56.499s-34.333 -24.5 -57 -24.5zM108 -22.001
c-22 0 -40.833 7.99902 -56.5 23.999s-23.5 34.667 -23.5 56c0 22 7.5 41 22.5 57s34.167 24 57.5 24c22 0 40.833 -7.83301 56.5 -23.5s23.5 -34.5 23.5 -56.5c0 -21.333 -7.66699 -40.166 -23 -56.499s-34.333 -24.5 -57 -24.5z" />
    <glyph glyph-name="semicolon" unicode=";" horiz-adv-x="213" 
d="M109 330c-22 0 -40.833 7.99902 -56.5 23.999s-23.5 34.667 -23.5 56c0 22 7.5 41.167 22.5 57.5s34.167 24.5 57.5 24.5c22 0 40.833 -8 56.5 -24s23.5 -35 23.5 -57c0 -21.333 -7.66699 -40.166 -23 -56.499s-34.333 -24.5 -57 -24.5zM56 -92.001l-18.001 22.998
c29.333 15.333 46.333 33.666 51 54.999h-7c-26.667 0 -44 17 -52 51c-1.33301 6.66699 -2 13.334 -2 20.001c0 22 7.83301 41.167 23.5 57.5s35.5 24.5 59.5 24.5c42 0 67.333 -19.333 76 -58c2 -7.33301 3 -15.666 3 -24.999c0 -37.333 -13.333 -68.666 -40 -93.999
c-19.333 -18 -50.666 -36 -93.999 -54z" />
    <glyph glyph-name="less" unicode="&#x3c;" horiz-adv-x="399" 
d="M362 83l-82 -83l-246 249l246 249l82 -83l-164 -166z" />
    <glyph glyph-name="equal" unicode="=" horiz-adv-x="420" 
d="M385 352h-349v118h349v-118zM385 117h-349v118h349v-118z" />
    <glyph glyph-name="greater" unicode="&#x3e;" horiz-adv-x="404" 
d="M363 249l-246 -249l-82 83l164 166l-164 166l82 83z" />
    <glyph glyph-name="question" unicode="?" horiz-adv-x="509" 
d="M233 235v-30.001h-117v30c0 32.667 10.5 60.334 31.5 83.001s49.5 34 85.5 34h130v118h-334v117h334c62 0 99.667 -27.667 113 -83c2.66699 -10.667 4 -22 4 -34v-114c0 -32.667 -10.5 -61 -31.5 -85s-49.5 -36 -85.5 -36h-130zM160 -22.001
c-22 0 -40.833 7.99902 -56.5 23.999s-23.5 34.667 -23.5 56c0 22 7.5 41 22.5 57s34.167 24 57.5 24c22 0 40.833 -7.83301 56.5 -23.5s23.5 -34.5 23.5 -56.5c0 -21.333 -7.5 -40.166 -22.5 -56.499s-34.167 -24.5 -57.5 -24.5z" />
    <glyph glyph-name="at" unicode="@" horiz-adv-x="431" 
d="M375 107h-322v415h322v-296h-235v176h148v-96h-61v40h-26v-63h112v182h-199v-302h261v-56z" />
    <glyph glyph-name="A" unicode="A" horiz-adv-x="663" 
d="M620 0l-116 -0.000976562v235h-349v-235h-116v470c0 32.667 10.5 60.334 31.5 83.001s49.167 34 84.5 34h349c28 0 54.333 -12.5 79 -37.5s37 -51.5 37 -79.5v-470zM504 351.999v118h-349v-118h349z" />
    <glyph glyph-name="B" unicode="B" horiz-adv-x="667" 
d="M505 0l-464.999 -0.00195312v587h465c34 0 61.833 -11.167 83.5 -33.5s32.5 -50.166 32.5 -83.499v-103c0 -54.667 -20.333 -81.667 -61 -81c32 -5.33301 51.333 -22.333 58 -51c2 -8 3 -18 3 -30c1.33301 -69.333 -1.66699 -114.666 -9 -135.999
c-14.667 -46 -50.334 -69 -107.001 -69zM505.001 351.998v118h-348v-118h348zM505.001 116.998v118h-348v-118h348z" />
    <glyph glyph-name="C" unicode="C" horiz-adv-x="650" 
d="M599 0l-445 -0.000976562c-62.667 0 -100 26 -112 78c-2.66699 12 -4 25 -4 39v353c0 30.667 10.833 57.834 32.5 81.501s49.5 35.5 83.5 35.5h445v-117h-445v-353h445v-117z" />
    <glyph glyph-name="D" unicode="D" horiz-adv-x="671" 
d="M510 0h-465v587h465c32.667 0 60.167 -11.5 82.5 -34.5s33.5 -50.5 33.5 -82.5v-353c0 -78 -38.667 -117 -116 -117zM510 117v353h-349v-353h349z" />
    <glyph glyph-name="E" unicode="E" horiz-adv-x="577" 
d="M519 0h-465v587h465v-117h-348v-118h348v-117h-348v-118h348v-117z" />
    <glyph glyph-name="F" unicode="F" horiz-adv-x="577" 
d="M519 235h-348v-235h-117v587h465v-117h-348v-118h348v-117z" />
    <glyph glyph-name="G" unicode="G" horiz-adv-x="689" 
d="M631 0l-465 -0.000976562c-62 0 -99.333 26 -112 78c-2.66699 12 -4 25 -4 39v353c0 30.667 11 57.834 33 81.501s49.667 35.5 83 35.5h446v-117h-446v-353h349v118h-232v117h348v-352z" />
    <glyph glyph-name="H" unicode="H" horiz-adv-x="662" 
d="M612 0h-116v235h-329v-235h-116v587h116v-235h329v235h116v-587z" />
    <glyph glyph-name="I" unicode="I" horiz-adv-x="228" 
d="M170 0h-116v587h116v-587z" />
    <glyph glyph-name="J" unicode="J" horiz-adv-x="693" 
d="M635 0l-463.999 0.000976562c-62.667 0 -100.334 26.667 -113.001 80c-2.66699 11.333 -4 23.666 -4 36.999v118h117v-118h348v470h116v-587z" />
    <glyph glyph-name="K" unicode="K" horiz-adv-x="646" 
d="M616 0h-194l-271 204v-204h-117v587h117v-204l271 204h194l-422 -294z" />
    <glyph glyph-name="L" unicode="L" horiz-adv-x="538" 
d="M502 0h-465v587h117v-470h348v-117z" />
    <glyph glyph-name="M" unicode="M" horiz-adv-x="810" 
d="M752 0h-116v334l-160 -334h-145l-160 334v-334h-116v587h116l232 -470l233 470h116v-587z" />
    <glyph glyph-name="N" unicode="N" horiz-adv-x="693" 
d="M636 0h-73l-392 382v-382h-116v587h72l393 -382v382h116v-587z" />
    <glyph glyph-name="O" unicode="O" horiz-adv-x="659" 
d="M506 0l-349 -0.000976562c-62 0 -99.333 26 -112 78c-2.66699 12 -4 25 -4 39v353c0 30.667 11 57.834 33 81.501s49.667 35.5 83 35.5h349c32.667 0 60.167 -11.5 82.5 -34.5s33.5 -50.5 33.5 -82.5v-353c0 -78 -38.667 -117 -116 -117zM506 116.999v353h-349v-353h349z
" />
    <glyph glyph-name="P" unicode="P" horiz-adv-x="638" 
d="M152 235v-235h-116v587h455c32 0 59.333 -11.5 82 -34.5s34 -50.5 34 -82.5v-118c0 -78 -38.667 -117 -116 -117h-339zM491 352v118h-339v-118h339z" />
    <glyph glyph-name="Q" unicode="Q" horiz-adv-x="659" 
d="M390 0v-117.001h-116v117h-117c-62 0 -99.333 26 -112 78c-2.66699 12 -4 25 -4 39v353c0 30.667 11 57.834 33 81.501s49.667 35.5 83 35.5h349c32.667 0 60.167 -11.5 82.5 -34.5s33.5 -50.5 33.5 -82.5v-353c0 -78 -38.667 -117 -116 -117h-116zM506 116.999v353h-349
v-353h349z" />
    <glyph glyph-name="R" unicode="R" horiz-adv-x="653" 
d="M619 0h-174l-273 235h-18v-235h-116v587h445c32.667 0 60.167 -11.5 82.5 -34.5s33.5 -50.5 33.5 -82.5v-118c0 -78 -38.667 -117 -116 -117h-143zM483 352v118h-329v-118h329z" />
    <glyph glyph-name="S" unicode="S" horiz-adv-x="640" 
d="M480 0l-416 -0.000976562v117h416v118h-309c-29.333 0 -54 7.66699 -74 23s-33 36 -39 62c-2.66699 10 -4 20.667 -4 32v118c0 30.667 11 57.834 33 81.501s50 35.5 84 35.5h385v-117h-385v-118h309c33.333 0 61 -11.333 83 -34s33 -50.334 33 -83.001v-118
c0 -33.333 -10 -60.666 -30 -81.999c-21.333 -23.333 -50 -35 -86 -35z" />
    <glyph glyph-name="T" unicode="T" horiz-adv-x="651" 
d="M614 470h-233v-470h-116v470h-232v117h581v-117z" />
    <glyph glyph-name="U" unicode="U" horiz-adv-x="693" 
d="M519 0l-347.999 0.00195312c-34.667 0 -62.834 11.167 -84.501 33.5s-32.5 50.166 -32.5 83.499v470h117v-470h348v470h116v-470c0 -32.667 -10.333 -60.334 -31 -83.001s-49 -34 -85 -34z" />
    <glyph glyph-name="V" unicode="V" horiz-adv-x="640" 
d="M613 587l-232 -587h-117l-232 587h131l160 -426l159 426h131z" />
    <glyph glyph-name="W" unicode="W" horiz-adv-x="981" 
d="M954 587l-232 -587h-116l-116 352l-117 -352h-116l-232 587h131l159 -446l131 446h87l131 -446l160 446h130z" />
    <glyph glyph-name="X" unicode="X" horiz-adv-x="767" 
d="M732 0h-159l-189 216l-189 -216h-160l279 293l-279 294h160l189 -216l189 216h159l-278 -294z" />
    <glyph glyph-name="Y" unicode="Y" horiz-adv-x="658" 
d="M619 587l-232 -382v-205h-116v205l-233 382h131l160 -294l160 294h130z" />
    <glyph glyph-name="Z" unicode="Z" horiz-adv-x="663" 
d="M623 0h-581v59l387 411h-387v117h581v-59l-388 -411h388v-117z" />
    <glyph glyph-name="bracketleft" unicode="[" horiz-adv-x="297" 
d="M269 -117h-233v821h233v-117h-117v-587h117v-117z" />
    <glyph glyph-name="backslash" unicode="\" horiz-adv-x="460" 
d="M438 0h-91l-330 587h91z" />
    <glyph glyph-name="bracketright" unicode="]" horiz-adv-x="348" 
d="M290 -117h-232v117h116v587h-116v117h232v-821z" />
    <glyph glyph-name="asciicircum" unicode="^" horiz-adv-x="1000" 
 />
    <glyph glyph-name="underscore" unicode="_" horiz-adv-x="581" 
d="M581 -195h-581v118h581v-118z" />
    <glyph glyph-name="grave" unicode="`" horiz-adv-x="504" 
d="M371 639h-82l-107 110h108z" />
    <glyph glyph-name="a" unicode="a" horiz-adv-x="691" 
d="M634 0l-465 -0.000976562c-33.333 0 -61 11.167 -83 33.5s-33 50.166 -33 83.499v118c0 32.667 10.5 60.334 31.5 83.001s49.167 34 84.5 34h349v118h-465v117h465c34 0 61.833 -11.167 83.5 -33.5s32.5 -50.166 32.5 -83.499v-470zM518 116.999v118h-349v-118h349z" />
    <glyph glyph-name="b" unicode="b" horiz-adv-x="686" 
d="M513 0l-464 -0.00195312v756h116v-169h348c32 0 59.5 -11.167 82.5 -33.5s34.5 -49.166 34.5 -80.499v-356c0 -33.333 -10 -60.666 -30 -81.999c-21.333 -23.333 -50.333 -35 -87 -35zM513 116.998v353h-348v-353h348z" />
    <glyph glyph-name="c" unicode="c" horiz-adv-x="650" 
d="M599 0l-445 -0.000976562c-62.667 0 -100 26 -112 78c-2.66699 12 -4 25 -4 39v353c0 30.667 10.833 57.834 32.5 81.501s49.5 35.5 83.5 35.5h445v-117h-445v-353h445v-117z" />
    <glyph glyph-name="d" unicode="d" horiz-adv-x="671" 
d="M617 0h-455c-28.667 0 -53 7.66699 -73 23s-33 36.333 -39 63c-2.66699 10 -4 20.333 -4 31v356c0 30 11.167 56.5 33.5 79.5s49.833 34.5 82.5 34.5h339l1 169h116zM501 117v353h-339v-353h339z" />
    <glyph glyph-name="e" unicode="e" horiz-adv-x="691" 
d="M169 235v-118h435v-117h-435c-34 0 -61.833 11.167 -83.5 33.5s-32.5 50.166 -32.5 83.499v353c0 34 10 62 30 84s48.667 33 86 33h349c34 0 61.833 -11.167 83.5 -33.5s32.5 -50.166 32.5 -83.499v-118c0 -32.667 -10 -60 -30 -82c-22 -23.333 -50.667 -35 -86 -35h-349
zM518 352v118h-349v-118h349z" />
    <glyph glyph-name="f" unicode="f" horiz-adv-x="317" 
d="M300 638h-105v-51h73v-117h-73v-470h-116v470h-51v117h51v51c0 33.333 10.333 61.333 31 84s49 34 85 34h105v-118z" />
    <glyph glyph-name="g" unicode="g" horiz-adv-x="695" 
d="M522 -195h-198v118h198v77h-349c-31.333 0 -58.5 11.167 -81.5 33.5s-34.5 49.166 -34.5 80.499v356c0 32.667 10.333 60.334 31 83.001s49 34 85 34h465v-664c0 -78.667 -38.667 -118 -116 -118zM522 117v353h-349v-353h349z" />
    <glyph glyph-name="h" unicode="h" horiz-adv-x="691" 
d="M634 0l-116 -0.000976562v470h-349v-470h-116v756h116v-169h349c62 0 99.333 -26.667 112 -80c2.66699 -11.333 4 -23.666 4 -36.999v-470z" />
    <glyph glyph-name="i" unicode="i" horiz-adv-x="222" 
d="M174 0h-116v587h116v-587z" />
    <glyph glyph-name="j" unicode="j" horiz-adv-x="339" 
d="M166 -195h-116.001v118h116v664h116v-664c0 -32.667 -10.333 -60 -31 -82c-21.333 -24 -49.666 -36 -84.999 -36z" />
    <glyph glyph-name="k" unicode="k" horiz-adv-x="646" 
d="M616 0h-194l-271 204v-204h-117v587h117v-204l271 204h194l-422 -294z" />
    <glyph glyph-name="l" unicode="l" horiz-adv-x="232" 
d="M174 0h-116v756h116v-756z" />
    <glyph glyph-name="m" unicode="m" horiz-adv-x="923" 
d="M867 0l-117.001 -0.000976562v470h-232v-470h-116v470h-233v-470h-116v587h697c62.667 0 100.334 -26.667 113.001 -80c2.66699 -11.333 4 -23.666 4 -36.999v-470z" />
    <glyph glyph-name="n" unicode="n" horiz-adv-x="648" 
d="M604 0l-116.001 -0.000976562v470h-319v-470h-116v587h435c62.667 0 100.334 -26.667 113.001 -80c2 -11.333 3 -23.666 3 -36.999v-470z" />
    <glyph glyph-name="o" unicode="o" horiz-adv-x="659" 
d="M506 0l-349 -0.000976562c-62 0 -99.333 26 -112 78c-2.66699 12 -4 25 -4 39v353c0 30.667 11 57.834 33 81.501s49.667 35.5 83 35.5h349c32.667 0 60.167 -11.5 82.5 -34.5s33.5 -50.5 33.5 -82.5v-353c0 -78 -38.667 -117 -116 -117zM506 116.999v353h-349v-353h349z
" />
    <glyph glyph-name="p" unicode="p" horiz-adv-x="691" 
d="M169 0v-195h-116v782h465c28.667 0 53 -7.66699 73 -23s33.333 -36.333 40 -63c2 -10 3 -20.333 3 -31v-356c0 -30 -11.167 -56.5 -33.5 -79.5s-49.833 -34.5 -82.5 -34.5h-349zM518 117v353h-349v-353h349z" />
    <glyph glyph-name="q" unicode="q" horiz-adv-x="695" 
d="M638 -195h-116v195h-349c-31.333 0 -58.5 11.167 -81.5 33.5s-34.5 49.166 -34.5 80.499v356c0 32.667 10.333 60.334 31 83.001s49 34 85 34h465v-782zM522 117v353h-349v-353h349z" />
    <glyph glyph-name="r" unicode="r" horiz-adv-x="616" 
d="M580 352l-117.001 -0.000976562v118h-299v-470h-116v587h415c62.667 0 100.334 -26.667 113.001 -80c2.66699 -11.333 4 -23.666 4 -36.999v-118z" />
    <glyph glyph-name="s" unicode="s" horiz-adv-x="640" 
d="M480 0l-416 -0.000976562v117h416v118h-309c-29.333 0 -54 7.66699 -74 23s-33 36 -39 62c-2.66699 10 -4 20.667 -4 32v118c0 30.667 11 57.834 33 81.501s50 35.5 84 35.5h385v-117h-385v-118h309c33.333 0 61 -11.333 83 -34s33 -50.334 33 -83.001v-118
c0 -33.333 -10 -60.666 -30 -81.999c-21.333 -23.333 -50 -35 -86 -35z" />
    <glyph glyph-name="t" unicode="t" horiz-adv-x="306" 
d="M266 0l-116 0.000976562c-34 0 -62 11.167 -84 33.5s-33 50.166 -33 83.499v637h117v-167h116v-117h-116v-353h116v-117z" />
    <glyph glyph-name="u" unicode="u" horiz-adv-x="693" 
d="M519 0l-347.999 0.00195312c-34.667 0 -62.834 11.167 -84.501 33.5s-32.5 50.166 -32.5 83.499v470h117v-470h348v470h116v-470c0 -32.667 -10.333 -60.334 -31 -83.001s-49 -34 -85 -34z" />
    <glyph glyph-name="v" unicode="v" horiz-adv-x="640" 
d="M613 587l-232 -587h-117l-232 587h131l160 -426l159 426h131z" />
    <glyph glyph-name="w" unicode="w" horiz-adv-x="981" 
d="M954 587l-232 -587h-116l-116 352l-117 -352h-116l-232 587h130l160 -446l131 446h87l131 -446l160 446h130z" />
    <glyph glyph-name="x" unicode="x" horiz-adv-x="767" 
d="M732 0h-159l-189 216l-189 -216h-160l279 293l-279 294h160l189 -216l189 216h159l-278 -294z" />
    <glyph glyph-name="y" unicode="y" horiz-adv-x="633" 
d="M607 587l-320 -822h-116l87 235l-232 587h130l160 -446l160 446h131z" />
    <glyph glyph-name="z" unicode="z" horiz-adv-x="663" 
d="M623 0h-581v59l387 411h-387v117h581v-59l-388 -411h388v-117z" />
    <glyph glyph-name="braceleft" unicode="{" horiz-adv-x="1414" 
d="M62 293h1v47h67v28h-18v88h18v31h-18v37h439v-46c-4.66699 8.66699 -12.667 13 -24 13c-30.667 0 -46 -25.667 -46 -77c0 -50.667 16 -76 48 -76c10 0 20.333 6.33301 31 19v-17h24v184h374v-26h34v26h360v-524h-1290v293zM938 340v94c0 36 -15.667 54 -47 54
c-16 0 -26.333 -8 -31 -24c-6 16 -15.333 24 -28 24c-11.333 0 -20.333 -8 -27 -24v23h-32v-119h-19v-28h70v28h-19v61c0 15.333 6.33301 23 19 23c10 0 15 -7.66699 15 -23v-89h51v28h-19v61c0 14.667 6.33301 22 19 22c10 0 15 -7.33301 15 -22v-89h33zM986 267h-56v-189
h32v122h3l9 -122h58v189h-32v-122h-3zM480 267v-189h79l11 21v62l-8 14v3l8 14v55l-11 20h-79zM826 247v-148l10 -21h67l12 21v148l-11 20h-68zM271 267v-189h38v83h11v-83h41v76l-15 21v3l15 20v49l-11 20h-79zM256 293h32.999v56c4.66699 -8 12.667 -12 24 -12
c30.667 0 46 25.333 46 76s-16 76 -48 76c-9.33301 0 -19.666 -6.66699 -30.999 -20v18h-24v-194zM474.999 412c0 52 -18.333 78 -55 78c-36 0 -54 -26 -54 -78c0 -50.667 18 -76 54 -76c36.667 0 55 25.333 55 76zM1184 209h38v38l-10 20h-66l-11 -20v-66l12 -20l37 -9v-38
h-10v28h-39v-43l11 -21h65l11 21v72l-13 21l-35 8v33h10v-24zM255.999 78v69l-26 120h-41l-23 -120v-69h37v36h13v-36h40zM463.999 78v69l-24 120h-41l-23 -120v-69h38v36h12v-36h38zM168.999 293h21.001c36.667 4 55 27.667 55 71v123h-33v-91
c0 -17.333 -6.66699 -26 -20 -26c-12.667 0 -19 8.66699 -19 26v91h-32v-85c0 -42.667 15.333 -64 46 -64c9.33301 0 17.666 2.66699 24.999 8c0 -15.333 -9.33301 -23 -28 -23h-15v-30zM678 159h26v33h-26v35h26v40h-64v-189h64v42h-26v39zM786 156h24v33h-24v38h24v40h-63
v-189h39v78zM1064 227v-149h39v149h21v40h-81v-40h21zM685 487h-14.999v-23c-7.33301 17.333 -18.333 26 -33 26c-28.667 0 -43 -14.333 -43 -43c0 -18 7.33301 -30 22 -36c-15.333 -6 -23 -17 -23 -33c0.666992 -28 15.667 -42 45 -42c14.667 0 26.167 4.33301 34.5 13
s12.5 22 12.5 40h-15c-2 -12.667 -10.333 -19 -25 -19c-13.333 0 -20 4.66699 -20 14c0 12 6.66699 18 20 18h10v18h-10c-13.333 0 -20 5.66699 -20 17c0 10.667 6.66699 16 20 16c11.333 0 19.666 -6.66699 24.999 -20h15v54zM1096 485h-15.999v-21
c-8 17.333 -18 26 -30 26c-33.333 0 -50 -26 -50 -78c0 -50 17 -75 51 -75c24 0 39 19.333 45 58h-16c-2 -15.333 -10.333 -23 -25 -23c-15.333 0 -23 13.333 -23 40c0 27.333 7.66699 41 23 41s23.666 -9 24.999 -27h16v59zM151.002 120h-22v147h-38v-189h60v42z
M625.002 78v189h-39v-189h39zM740.002 368l-14 -0.000976562v65c0 13.333 4.66699 20 14 20c4 0 8 -2 12 -6l11 33c-5.33301 4.66699 -11 7.33398 -17 8.00098c-14 0 -24.333 -8 -31 -24v23h-19v-147h44v28zM943.002 486.999v-31h15v-116h34v147h-49zM286.002 436.999
c4 10 11 15 21 15c14 0 21 -12.667 21 -38c0 -28.667 -7.33301 -43 -22 -43c-9.33301 0 -16 5.33301 -20 16v50zM442.002 411.999c0 -26.667 -7.33301 -40 -22 -40c-14 0 -21 13.333 -21 40c0 27.333 7 41 21 41c14.667 0 22 -13.667 22 -41zM553.002 388.999
c-4 -9.33301 -10.667 -14 -20 -14c-14 0 -21 12.667 -21 38c0 28.667 7.33301 43 22 43c8.66699 0 15 -5.33301 19 -16v-51zM63.002 367.999v88h19v-88h-19zM864.002 113.999v119h11v-119h-11zM63.002 486.999v37h19v-37h-19zM203.002 141.999v19l6 50h2l5 -50v-19h-13z
M414.002 141.999v19l5 50h3l4 -50v-19h-12zM519.002 160.999h11v-47h-11v47zM519.002 191.999v41h11v-41h-11zM309.002 191.999v41h11v-41h-11z" />
    <glyph glyph-name="bar" unicode="|" horiz-adv-x="212" 
d="M155 -159h-101v896h101v-896z" />
    <glyph glyph-name="exclamdown" unicode="&#xa1;" horiz-adv-x="275" 
d="M173 39l10 -78v-176h-116c0 117.333 3.33301 202 10 254l19 157h58zM125 394c23.333 0 42.5 -8.16797 57.5 -24.501s22.5 -35.166 22.5 -56.499c0 -22 -7.83301 -40.833 -23.5 -56.5s-34.5 -23.5 -56.5 -23.5c-23.333 0 -42.5 8 -57.5 24s-22.5 35 -22.5 57
c0 21.333 7.83301 40 23.5 56s34.5 24 56.5 24z" />
    <glyph glyph-name="currency" unicode="&#xa4;" horiz-adv-x="650" 
d="M154 400l337 -0.000976562l-46 -70h-291v-68h245l-46 -69h-199v-76h445v-117h-445c-62.667 0 -100 26 -112 78c-2.66699 12 -4 25 -4 39v76h-35v69h35v68h-35v70h35v70c0 30.667 10.833 57.834 32.5 81.501s49.5 35.5 83.5 35.5h462l-78 -117h-384v-70z" />
    <glyph glyph-name="dieresis" unicode="&#xa8;" horiz-adv-x="575" 
d="M430 654c-13.333 0 -25.333 3.99902 -36 11.999s-16 18.667 -16 32c0 12 5.16699 22.333 15.5 31s22.5 13 36.5 13s26.167 -4.16699 36.5 -12.5s15.5 -19.166 15.5 -32.499c0 -12 -5 -22.167 -15 -30.5s-22.333 -12.5 -37 -12.5zM262 653.999
c-13.333 0 -25.333 3.99902 -36 11.999s-16 18.667 -16 32c0 12.667 5.16699 23.167 15.5 31.5s22.5 12.5 36.5 12.5c13.333 0 25.333 -4.16699 36 -12.5s16 -19.166 16 -32.499c0 -12 -5.16699 -22.167 -15.5 -30.5s-22.5 -12.5 -36.5 -12.5z" />
    <glyph glyph-name="copyright" unicode="&#xa9;" horiz-adv-x="635" 
d="M41 277c0 38 7.33301 74 22 108s34.5 63.5 59.5 88.5s54.5 44.833 88.5 59.5s70 22 108 22s74 -7.33301 108 -22s63.5 -34.5 88.5 -59.5s44.833 -54.5 59.5 -88.5s22 -70 22 -108s-7.33301 -74 -22 -108s-34.5 -63.5 -59.5 -88.5s-54.5 -44.833 -88.5 -59.5
s-70 -22 -108 -22s-74 7.33301 -108 22s-63.5 34.5 -88.5 59.5s-44.833 54.5 -59.5 88.5s-22 70 -22 108zM74 276c0 -34 6.5 -66 19.5 -96s30.5 -56 52.5 -78s48 -39.5 78 -52.5s62 -19.5 96 -19.5s66 6.5 96 19.5s56.167 30.5 78.5 52.5s40 48 53 78s19.5 62 19.5 96
s-6.5 66 -19.5 96s-30.667 56.333 -53 79s-48.5 40.5 -78.5 53.5s-62 19.5 -96 19.5s-66 -6.5 -96 -19.5s-56 -30.833 -78 -53.5s-39.5 -49 -52.5 -79s-19.5 -62 -19.5 -96zM378 346c-17.333 24 -38.332 35.998 -62.999 35.998c-23.333 0 -42 -9.66699 -56 -29
s-21 -46 -21 -80c0 -32 7.5 -58 22.5 -78s33.5 -30 55.5 -30c11.333 0 22.5 2.83301 33.5 8.5s20.5 13.167 28.5 22.5l50 -34c-25.333 -41.333 -63 -62 -113 -62c-20 0 -38.5 4.33301 -55.5 13s-31.667 20.834 -44 36.501s-22 34 -29 55s-10.5 43.833 -10.5 68.5
s3.16699 47.667 9.5 69s15.5 39.833 27.5 55.5s26.667 27.834 44 36.501s36.666 13 57.999 13c52 0 90.333 -22.333 115 -67z" />
    <glyph glyph-name="guillemotleft" unicode="&#xab;" horiz-adv-x="374" 
d="M95 302l102 -48v-60l-156 77v59l156 81v-62zM243 302l102 -48v-60l-156 77v59l156 81v-62z" />
    <glyph glyph-name="registered" unicode="&#xae;" horiz-adv-x="540" 
d="M270 524c-28 0 -53.166 -5.00098 -75.499 -15.001s-41.333 -23 -57 -39s-27.667 -34.333 -36 -55s-12.5 -41.334 -12.5 -62.001c0 -21.333 4.16699 -42.333 12.5 -63s20.333 -39 36 -55s34.667 -29 57 -39s47.5 -15 75.5 -15c26 0 50.833 4.33301 74.5 13
s44.167 20.834 61.5 36.501s31.166 34 41.499 55s15.5 43.5 15.5 67.5c0 20.667 -4.83301 41.334 -14.5 62.001s-23 39 -40 55s-37.333 29 -61 39s-49.5 15 -77.5 15zM271.001 141.999c-32.667 0 -62.666 5.83301 -89.999 17.5s-51 27.167 -71 46.5
s-35.5 41.666 -46.5 66.999s-16.5 52 -16.5 80c0 28.667 5.5 55.834 16.5 81.501s26.5 48.167 46.5 67.5s43.667 34.666 71 45.999s57.333 17 90 17s63 -5.5 91 -16.5s52.167 -26 72.5 -45s36.166 -41.333 47.499 -67s17 -53.5 17 -83.5c0 -28 -5.83301 -54.667 -17.5 -80
s-27.667 -47.666 -48 -66.999s-44.5 -34.833 -72.5 -46.5s-58 -17.5 -90 -17.5zM246.002 417.999v-52h38c16 0 24 8.33301 24 25c0 18 -8 27 -24 27h-38zM270.002 318.999l-24 0.000976562v-84h-45v229h82c21.333 0 38.5 -6.33301 51.5 -19s19.5 -30.667 19.5 -54
c0 -15.333 -3 -27.833 -9 -37.5s-15.667 -18.834 -29 -27.501l41 -91h-48z" />
    <glyph glyph-name="acute" unicode="&#xb4;" horiz-adv-x="504" 
d="M466 749l-107 -110h-82l81 110h108z" />
    <glyph glyph-name="cedilla" unicode="&#xb8;" horiz-adv-x="509" 
d="M229 -170c-13.333 0 -28.6689 1.00098 -46.002 3.00098v21c10.667 -1.33301 18.334 -2 23.001 -2c15.333 0 29 5.33301 41 16s18 23 18 37c0 24.667 -13.667 37 -41 37c-3.33301 0 -6.66602 -0.333008 -9.99902 -1l53 87h29l-24 -39c40.667 -9.33301 61 -33.333 61 -72
c0 -24.667 -10.333 -45.334 -31 -62.001s-45 -25 -73 -25z" />
    <glyph glyph-name="guillemotright" unicode="&#xbb;" horiz-adv-x="386" 
d="M302 304l-102 47v60l156 -77v-59l-156 -81v62zM154 304l-102 47v60l156 -77v-59l-156 -81v62z" />
    <glyph glyph-name="questiondown" unicode="&#xbf;" horiz-adv-x="560" 
d="M269 141v30.001h116v-30c0 -32.667 -10.5 -60.334 -31.5 -83.001s-49.167 -34 -84.5 -34h-131v-118h334v-117h-334c-62 0 -99.667 27.667 -113 83c-2 10.667 -3 22 -3 34v114c0 32.667 10.333 61 31 85s49 36 85 36h131zM341 398.001c22 0 40.833 -7.99902 56.5 -23.999
s23.5 -34.667 23.5 -56c0 -22 -7.5 -41 -22.5 -57s-34.167 -24 -57.5 -24c-22 0 -40.833 7.83301 -56.5 23.5s-23.5 34.5 -23.5 56.5c0 21.333 7.66699 40.166 23 56.499s34.333 24.5 57 24.5z" />
    <glyph glyph-name="Agrave" unicode="&#xc0;" horiz-adv-x="729" 
d="M620 0l-116 -0.000976562v235h-349v-235h-116v470c0 32.667 10.5 60.334 31.5 83.001s49.167 34 84.5 34h349c28 0 54.333 -12.5 79 -37.5s37 -51.5 37 -79.5v-470zM504 351.999v118h-349v-118h349zM381 638.999h-82l-107 110h108z" />
    <glyph glyph-name="Aacute" unicode="&#xc1;" horiz-adv-x="729" 
d="M620 0l-116 -0.000976562v235h-349v-235h-116v470c0 32.667 10.5 60.334 31.5 83.001s49.167 34 84.5 34h349c28 0 54.333 -12.5 79 -37.5s37 -51.5 37 -79.5v-470zM504 351.999v118h-349v-118h349zM456 748.999l-107 -110h-82l81 110h108z" />
    <glyph glyph-name="Acircumflex" unicode="&#xc2;" horiz-adv-x="729" 
d="M620 0l-116 -0.000976562v235h-349v-235h-116v470c0 32.667 10.5 60.334 31.5 83.001s49.167 34 84.5 34h349c28 0 54.333 -12.5 79 -37.5s37 -51.5 37 -79.5v-470zM504 351.999v118h-349v-118h349zM469 643.999h-83l-54 65l-52 -65h-83l72 102h128z" />
    <glyph glyph-name="Atilde" unicode="&#xc3;" horiz-adv-x="729" 
d="M620 0l-116 -0.000976562v235h-349v-235h-116v470c0 32.667 10.5 60.334 31.5 83.001s49.167 34 84.5 34h349c28 0 54.333 -12.5 79 -37.5s37 -51.5 37 -79.5v-470zM504 351.999v118h-349v-118h349zM479 748.999c0 -27.333 -6.99805 -50.333 -20.998 -69
c-16.667 -20.667 -39.667 -31 -69 -31c-22 0 -50 9 -84 27s-57 27 -69 27c-14.667 0 -25.334 -6 -32.001 -18c-4 -6 -8 -17.667 -12 -35h-15c2 66 31.667 99 89 99c22 0 49.667 -8.83301 83 -26.5s56.666 -26.5 69.999 -26.5c23.333 0 38.333 17.667 45 53h15z" />
    <glyph glyph-name="Adieresis" unicode="&#xc4;" horiz-adv-x="729" 
d="M620 0l-116 -0.000976562v235h-349v-235h-116v470c0 32.667 10.5 60.334 31.5 83.001s49.167 34 84.5 34h349c28 0 54.333 -12.5 79 -37.5s37 -51.5 37 -79.5v-470zM504 351.999v118h-349v-118h349zM421 653.999c-14 0 -26.332 3.99902 -36.999 11.999s-16 18.667 -16 32
c0 12 5.16699 22.333 15.5 31s22.833 13 37.5 13c13.333 0 25.166 -4.16699 35.499 -12.5s15.5 -19.166 15.5 -32.499c0 -12 -5 -22.167 -15 -30.5s-22 -12.5 -36 -12.5zM252.001 653.998c-13.333 0 -25.333 3.99902 -36 11.999s-16 18.667 -16 32
c0 12.667 5.16699 23.167 15.5 31.5s22.5 12.5 36.5 12.5c13.333 0 25.333 -4.16699 36 -12.5s16 -19.166 16 -32.499c0 -12 -5 -22.167 -15 -30.5s-22.333 -12.5 -37 -12.5z" />
    <glyph glyph-name="Aring" unicode="&#xc5;" horiz-adv-x="729" 
d="M620 0l-116 -0.000976562v235h-349v-235h-116v470c0 32.667 10.5 60.334 31.5 83.001s49.167 34 84.5 34h349c28 0 54.333 -12.5 79 -37.5s37 -51.5 37 -79.5v-470zM504 351.999v118h-349v-118h349zM336 606.999c-24.667 0 -46.166 8.33203 -64.499 24.999
s-27.5 37.334 -27.5 62.001c0 23.333 8.83301 43.5 26.5 60.5s39.5 25.5 65.5 25.5c25.333 0 47.166 -8.33301 65.499 -25s27.5 -37 27.5 -61s-9 -44.5 -27 -61.5s-40 -25.5 -66 -25.5zM336.001 748.998c-16.667 0 -30.667 -5.5 -42 -16.5s-17 -23.833 -17 -38.5
c0 -16 5.83301 -29.167 17.5 -39.5s25.5 -15.5 41.5 -15.5c16.667 0 30.667 5.5 42 16.5s17 23.833 17 38.5c0 15.333 -5.83301 28.333 -17.5 39s-25.5 16 -41.5 16z" />
    <glyph glyph-name="AE" unicode="&#xc6;" horiz-adv-x="741" 
d="M709 0l-367 -0.000976562v235h-200v-235h-117v470c0 32.667 10.5 60.334 31.5 83.001s49.5 34 85.5 34h567v-117h-250v-118h250v-117h-250v-118h250v-117zM342 351.999v118h-200v-118h200z" />
    <glyph glyph-name="Ccedilla" unicode="&#xc7;" horiz-adv-x="630" 
d="M596 0l-445 -0.000976562c-62.667 0 -100 26 -112 78c-2.66699 12 -4 25 -4 39v353c0 30.667 10.833 57.834 32.5 81.501s49.5 35.5 83.5 35.5h445v-117h-445v-353h445v-117zM308 -170.001c-12.667 0 -28.001 1.00098 -46.001 3.00098v21
c10.667 -1.33301 18.667 -2 24 -2c15.333 0 28.833 5.33301 40.5 16s17.5 23 17.5 37c0 24.667 -13.667 37 -41 37c-3.33301 0 -6.66602 -0.333008 -9.99902 -1l54 87h29l-25 -39c40.667 -9.33301 61 -33.333 61 -72c0 -24.667 -10.333 -45.334 -31 -62.001s-45 -25 -73 -25
z" />
    <glyph glyph-name="Egrave" unicode="&#xc8;" horiz-adv-x="635" 
d="M519 0h-465v587h465v-117h-348v-118h348v-117h-348v-118h348v-117zM371 639h-82l-107 110h108z" />
    <glyph glyph-name="Eacute" unicode="&#xc9;" horiz-adv-x="635" 
d="M519 0h-465v587h465v-117h-348v-118h348v-117h-348v-118h348v-117zM426 749l-107 -110h-81l81 110h107z" />
    <glyph glyph-name="Ecircumflex" unicode="&#xca;" horiz-adv-x="635" 
d="M519 0h-465v587h465v-117h-348v-118h348v-117h-348v-118h348v-117zM439 644h-83l-54 65l-52 -65h-83l72 102h128z" />
    <glyph glyph-name="Edieresis" unicode="&#xcb;" horiz-adv-x="635" 
d="M519 0h-465v587h465v-117h-348v-118h348v-117h-348v-118h348v-117zM391 654c-13.333 0 -25.333 3.99902 -36 11.999s-16 18.667 -16 32c0 12 5.16699 22.333 15.5 31s22.5 13 36.5 13c13.333 0 25.333 -4.16699 36 -12.5s16 -19.166 16 -32.499
c0 -12 -5.16699 -22.167 -15.5 -30.5s-22.5 -12.5 -36.5 -12.5zM223 653.999c-14 0 -26.167 3.99902 -36.5 11.999s-15.5 18.667 -15.5 32c0 12.667 5 23.167 15 31.5s22 12.5 36 12.5s26.167 -4.16699 36.5 -12.5s15.5 -19.166 15.5 -32.499c0 -12 -5 -22.167 -15 -30.5
s-22 -12.5 -36 -12.5z" />
    <glyph glyph-name="Igrave" unicode="&#xcc;" horiz-adv-x="251" 
d="M170 0h-116v587h116v-587zM163 639h-82l-107 110h108z" />
    <glyph glyph-name="Iacute" unicode="&#xcd;" horiz-adv-x="251" 
d="M170 0h-116v587h116v-587zM258 749l-107 -110h-82l81 110h108z" />
    <glyph glyph-name="Icircumflex" unicode="&#xce;" horiz-adv-x="251" 
d="M170 0h-116v587h116v-587zM251 644h-83l-54 65l-52 -65h-83l72 102h128z" />
    <glyph glyph-name="Idieresis" unicode="&#xcf;" horiz-adv-x="251" 
d="M170 0h-116v587h116v-587zM203 654c-14 0 -26.166 3.99902 -36.499 11.999s-15.5 18.667 -15.5 32c0 12 5.16699 22.333 15.5 31s22.5 13 36.5 13c13.333 0 25.166 -4.16699 35.499 -12.5s15.5 -19.166 15.5 -32.499c0 -12 -5 -22.167 -15 -30.5s-22 -12.5 -36 -12.5z
M35.001 653.999c-14 0 -26.167 3.99902 -36.5 11.999s-15.5 18.667 -15.5 32c0 12.667 5 23.167 15 31.5s22 12.5 36 12.5c13.333 0 25.333 -4.16699 36 -12.5s16 -19.166 16 -32.499c0 -12 -5 -22.167 -15 -30.5s-22 -12.5 -36 -12.5z" />
    <glyph glyph-name="Ntilde" unicode="&#xd1;" horiz-adv-x="763" 
d="M636 0h-73l-392 382v-382h-116v587h72l392 -382v382h117v-587zM469 749c0 -27.333 -6.99805 -50.333 -20.998 -69c-16 -20.667 -39 -31 -69 -31c-22 0 -50 9 -84 27s-57 27 -69 27c-14.667 0 -25.334 -6 -32.001 -18c-4 -6 -8 -17.667 -12 -35h-15c2 66 31.667 99 89 99
c22 0 49.667 -8.83301 83 -26.5s56.666 -26.5 69.999 -26.5c23.333 0 38.333 17.667 45 53h15z" />
    <glyph glyph-name="Ograve" unicode="&#xd2;" 
d="M506 0l-349 -0.000976562c-62 0 -99.333 26 -112 78c-2.66699 12 -4 25 -4 39v353c0 30.667 11 57.834 33 81.501s49.667 35.5 83 35.5h349c32.667 0 60.167 -11.5 82.5 -34.5s33.5 -50.5 33.5 -82.5v-353c0 -78 -38.667 -117 -116 -117zM506 116.999v353h-349v-353h349z
M371 638.999h-82l-107 110h108z" />
    <glyph glyph-name="Oacute" unicode="&#xd3;" 
d="M506 0l-349 -0.000976562c-62 0 -99.333 26 -112 78c-2.66699 12 -4 25 -4 39v353c0 30.667 11 57.834 33 81.501s49.667 35.5 83 35.5h349c32.667 0 60.167 -11.5 82.5 -34.5s33.5 -50.5 33.5 -82.5v-353c0 -78 -38.667 -117 -116 -117zM506 116.999v353h-349v-353h349z
M486 748.999l-108 -110h-81l81 110h108z" />
    <glyph glyph-name="Ocircumflex" unicode="&#xd4;" 
d="M506 0l-349 -0.000976562c-62 0 -99.333 26 -112 78c-2.66699 12 -4 25 -4 39v353c0 30.667 11 57.834 33 81.501s49.667 35.5 83 35.5h349c32.667 0 60.167 -11.5 82.5 -34.5s33.5 -50.5 33.5 -82.5v-353c0 -78 -38.667 -117 -116 -117zM506 116.999v353h-349v-353h349z
M469 643.999h-83l-54 65l-52 -65h-83l72 102h128z" />
    <glyph glyph-name="Otilde" unicode="&#xd5;" 
d="M506 0l-349 -0.000976562c-62 0 -99.333 26 -112 78c-2.66699 12 -4 25 -4 39v353c0 30.667 11 57.834 33 81.501s49.667 35.5 83 35.5h349c32.667 0 60.167 -11.5 82.5 -34.5s33.5 -50.5 33.5 -82.5v-353c0 -78 -38.667 -117 -116 -117zM506 116.999v353h-349v-353h349z
M489 748.999c0 -27.333 -6.99902 -50.333 -20.999 -69c-16.667 -20.667 -39.667 -31 -69 -31c-22 0 -50 9 -84 27s-57 27 -69 27c-14.667 0 -25.334 -6 -32.001 -18c-4 -6 -8 -17.667 -12 -35h-15c1.33301 66 31 99 89 99c21.333 0 48.833 -8.83301 82.5 -26.5
s57.167 -26.5 70.5 -26.5c23.333 0 38.333 17.667 45 53h15z" />
    <glyph glyph-name="Odieresis" unicode="&#xd6;" 
d="M506 0l-349 -0.000976562c-62 0 -99.333 26 -112 78c-2.66699 12 -4 25 -4 39v353c0 30.667 11 57.834 33 81.501s49.667 35.5 83 35.5h349c32.667 0 60.167 -11.5 82.5 -34.5s33.5 -50.5 33.5 -82.5v-353c0 -78 -38.667 -117 -116 -117zM506 116.999v353h-349v-353h349z
M430 653.999c-13.333 0 -25.333 3.99902 -36 11.999s-16 18.667 -16 32c0 12 5.16699 22.333 15.5 31s22.5 13 36.5 13s26.167 -4.16699 36.5 -12.5s15.5 -19.166 15.5 -32.499c0 -12 -5 -22.167 -15 -30.5s-22.333 -12.5 -37 -12.5zM262 653.998
c-13.333 0 -25.333 3.99902 -36 11.999s-16 18.667 -16 32c0 12.667 5.16699 23.167 15.5 31.5s22.5 12.5 36.5 12.5c13.333 0 25.333 -4.16699 36 -12.5s16 -19.166 16 -32.499c0 -12 -5.16699 -22.167 -15.5 -30.5s-22.5 -12.5 -36.5 -12.5z" />
    <glyph glyph-name="Oslash" unicode="&#xd8;" 
d="M170 0c-77.333 0 -115.998 39 -115.998 117v353c0 16 3 31 9 45s14.167 26.333 24.5 37s22.5 19.167 36.5 25.5s29.333 9.5 46 9.5h348c16 0 31.167 -3.16699 45.5 -9.5s26.666 -14.833 36.999 -25.5s18.666 -23 24.999 -37s9.5 -29 9.5 -45v-353
c0 -78 -39 -117 -117 -117h-348zM241.002 117l162 353h-233v-353h71zM451.002 470l-162 -353h229v353h-67z" />
    <glyph glyph-name="Ugrave" unicode="&#xd9;" horiz-adv-x="762" 
d="M519 0l-347.999 0.00195312c-34.667 0 -62.834 11.167 -84.501 33.5s-32.5 50.166 -32.5 83.499v470h117v-470h348v470h116v-470c0 -32.667 -10.333 -60.334 -31 -83.001s-49 -34 -85 -34zM410.001 639.002h-81l-107 110h107z" />
    <glyph glyph-name="Uacute" unicode="&#xda;" horiz-adv-x="762" 
d="M519 0l-347.999 0.00195312c-34.667 0 -62.834 11.167 -84.501 33.5s-32.5 50.166 -32.5 83.499v470h117v-470h348v470h116v-470c0 -32.667 -10.333 -60.334 -31 -83.001s-49 -34 -85 -34zM486.001 749.002l-108 -110h-81l81 110h108z" />
    <glyph glyph-name="Ucircumflex" unicode="&#xdb;" horiz-adv-x="762" 
d="M519 0l-347.999 0.00195312c-34.667 0 -62.834 11.167 -84.501 33.5s-32.5 50.166 -32.5 83.499v470h117v-470h348v470h116v-470c0 -32.667 -10.333 -60.334 -31 -83.001s-49 -34 -85 -34zM479.001 644.002h-83l-54 65l-52 -65h-83l72 102h128z" />
    <glyph glyph-name="Udieresis" unicode="&#xdc;" horiz-adv-x="762" 
d="M519 0l-347.999 0.00195312c-34.667 0 -62.834 11.167 -84.501 33.5s-32.5 50.166 -32.5 83.499v470h117v-470h348v470h116v-470c0 -32.667 -10.333 -60.334 -31 -83.001s-49 -34 -85 -34zM430.001 654.002c-13.333 0 -25.333 3.99902 -36 11.999s-16 18.667 -16 32
c0 12 5.16699 22.333 15.5 31s22.5 13 36.5 13s26.167 -4.16699 36.5 -12.5s15.5 -19.166 15.5 -32.499c0 -12 -5 -22.167 -15 -30.5s-22.333 -12.5 -37 -12.5zM262.001 654.001c-13.333 0 -25.333 3.99902 -36 11.999s-16 18.667 -16 32c0 12.667 5.16699 23.167 15.5 31.5
s22.5 12.5 36.5 12.5c13.333 0 25.333 -4.16699 36 -12.5s16 -19.166 16 -32.499c0 -12 -5.16699 -22.167 -15.5 -30.5s-22.5 -12.5 -36.5 -12.5z" />
    <glyph glyph-name="germandbls" unicode="&#xdf;" horiz-adv-x="635" 
d="M510 0l-237 -0.000976562v117h237v118h-237v117h237v118h-349v-470h-116v470c0 30 11 57 33 81s49.667 36 83 36h349c27.333 0 51.5 -8.5 72.5 -25.5s34.5 -38.5 40.5 -64.5c2 -9.33301 3 -47.666 3 -114.999c0 -41.333 -18.667 -72.333 -56 -93
c37.333 -21.333 56 -49.333 56 -84v-88c0 -78 -38.667 -117 -116 -117z" />
    <glyph glyph-name="agrave" unicode="&#xe0;" horiz-adv-x="760" 
d="M634 0l-465 -0.000976562c-33.333 0 -61 11.167 -83 33.5s-33 50.166 -33 83.499v118c0 32.667 10.5 60.334 31.5 83.001s49.167 34 84.5 34h349v118h-465v117h465c34 0 61.833 -11.167 83.5 -33.5s32.5 -50.166 32.5 -83.499v-470zM518 116.999v118h-349v-118h349z
M391 638.999h-82l-107 110h108z" />
    <glyph glyph-name="aacute" unicode="&#xe1;" horiz-adv-x="760" 
d="M634 0l-465 -0.000976562c-33.333 0 -61 11.167 -83 33.5s-33 50.166 -33 83.499v118c0 32.667 10.5 60.334 31.5 83.001s49.167 34 84.5 34h349v118h-465v117h465c34 0 61.833 -11.167 83.5 -33.5s32.5 -50.166 32.5 -83.499v-470zM518 116.999v118h-349v-118h349z
M466 748.999l-107 -110h-82l81 110h108z" />
    <glyph glyph-name="acircumflex" unicode="&#xe2;" horiz-adv-x="760" 
d="M634 0l-465 -0.000976562c-33.333 0 -61 11.167 -83 33.5s-33 50.166 -33 83.499v118c0 32.667 10.5 60.334 31.5 83.001s49.167 34 84.5 34h349v118h-465v117h465c34 0 61.833 -11.167 83.5 -33.5s32.5 -50.166 32.5 -83.499v-470zM518 116.999v118h-349v-118h349z
M469 643.999h-83l-54 65l-52 -65h-83l72 102h128z" />
    <glyph glyph-name="atilde" unicode="&#xe3;" horiz-adv-x="760" 
d="M634 0l-465 -0.000976562c-33.333 0 -61 11.167 -83 33.5s-33 50.166 -33 83.499v118c0 32.667 10.5 60.334 31.5 83.001s49.167 34 84.5 34h349v118h-465v117h465c34 0 61.833 -11.167 83.5 -33.5s32.5 -50.166 32.5 -83.499v-470zM518 116.999v118h-349v-118h349z
M479 748.999c0 -27.333 -6.99805 -50.333 -20.998 -69c-16.667 -20.667 -39.667 -31 -69 -31c-22 0 -50 9 -84 27s-57 27 -69 27c-14.667 0 -25.334 -6 -32.001 -18c-4 -6 -8 -17.667 -12 -35h-15c2 66 31.667 99 89 99c22 0 49.667 -8.83301 83 -26.5
s56.666 -26.5 69.999 -26.5c23.333 0 38.333 17.667 45 53h15z" />
    <glyph glyph-name="adieresis" unicode="&#xe4;" horiz-adv-x="760" 
d="M634 0l-465 -0.000976562c-33.333 0 -61 11.167 -83 33.5s-33 50.166 -33 83.499v118c0 32.667 10.5 60.334 31.5 83.001s49.167 34 84.5 34h349v118h-465v117h465c34 0 61.833 -11.167 83.5 -33.5s32.5 -50.166 32.5 -83.499v-470zM518 116.999v118h-349v-118h349z
M430 653.999c-13.333 0 -25.333 3.99902 -36 11.999s-16 18.667 -16 32c0 12 5.16699 22.333 15.5 31s22.5 13 36.5 13s26.167 -4.16699 36.5 -12.5s15.5 -19.166 15.5 -32.499c0 -12 -5 -22.167 -15 -30.5s-22.333 -12.5 -37 -12.5zM262 653.998
c-13.333 0 -25.333 3.99902 -36 11.999s-16 18.667 -16 32c0 12.667 5.16699 23.167 15.5 31.5s22.5 12.5 36.5 12.5c13.333 0 25.333 -4.16699 36 -12.5s16 -19.166 16 -32.499c0 -12 -5.16699 -22.167 -15.5 -30.5s-22.5 -12.5 -36.5 -12.5z" />
    <glyph glyph-name="aring" unicode="&#xe5;" horiz-adv-x="760" 
d="M634 0l-465 -0.000976562c-33.333 0 -61 11.167 -83 33.5s-33 50.166 -33 83.499v118c0 32.667 10.5 60.334 31.5 83.001s49.167 34 84.5 34h349v118h-465v117h465c34 0 61.833 -11.167 83.5 -33.5s32.5 -50.166 32.5 -83.499v-470zM518 116.999v118h-349v-118h349z
M346 606.999c-24.667 0 -46.166 8.33203 -64.499 24.999s-27.5 37.334 -27.5 62.001c0 23.333 8.83301 43.5 26.5 60.5s39.5 25.5 65.5 25.5c25.333 0 47.166 -8.33301 65.499 -25s27.5 -37 27.5 -61s-9 -44.5 -27 -61.5s-40 -25.5 -66 -25.5zM346.001 748.998
c-16.667 0 -30.667 -5.5 -42 -16.5s-17 -23.833 -17 -38.5c0 -16 5.83301 -29.167 17.5 -39.5s25.5 -15.5 41.5 -15.5c16.667 0 30.667 5.5 42 16.5s17 23.833 17 38.5c0 15.333 -5.83301 28.333 -17.5 39s-25.5 16 -41.5 16z" />
    <glyph glyph-name="ae" unicode="&#xe6;" horiz-adv-x="1149" 
d="M634 0l-465 -0.000976562c-33.333 0 -61 11.167 -83 33.5s-33 50.166 -33 83.499v118c0 32.667 10.5 60.334 31.5 83.001s49.167 34 84.5 34h349v118h-465v117h465c34 0 61.833 -11.167 83.5 -33.5s32.5 -50.166 32.5 -83.499v-470zM518 116.999v118h-349v-118h349z
M635 234.999l0.000976562 -118h435v-117h-435c-34 0 -62 11.167 -84 33.5s-33 50.166 -33 83.499v353c0 34 10.167 62 30.5 84s49.166 33 86.499 33h348c34 0 61.833 -11.167 83.5 -33.5s32.5 -50.166 32.5 -83.499v-118c0 -32.667 -10 -60 -30 -82
c-22 -23.333 -50.667 -35 -86 -35h-348zM983.001 351.999v118h-348v-118h348z" />
    <glyph glyph-name="ccedilla" unicode="&#xe7;" horiz-adv-x="627" 
d="M608 0l-445 -0.000976562c-62.667 0 -100 26 -112 78c-2.66699 12 -4 25 -4 39v353c0 30.667 10.833 57.834 32.5 81.501s49.5 35.5 83.5 35.5h445v-117h-445v-353h445v-117zM308 -170.001c-12.667 0 -28.001 1.00098 -46.001 3.00098v21
c10.667 -1.33301 18.667 -2 24 -2c15.333 0 28.833 5.33301 40.5 16s17.5 23 17.5 37c0 24.667 -13.667 37 -41 37c-3.33301 0 -6.66602 -0.333008 -9.99902 -1l54 87h29l-25 -39c40.667 -9.33301 61 -33.333 61 -72c0 -24.667 -10.333 -45.334 -31 -62.001s-45 -25 -73 -25
z" />
    <glyph glyph-name="egrave" unicode="&#xe8;" horiz-adv-x="760" 
d="M169 235v-118h435v-117h-435c-34 0 -61.833 11.167 -83.5 33.5s-32.5 50.166 -32.5 83.499v353c0 34 10 62 30 84s48.667 33 86 33h349c34 0 61.833 -11.167 83.5 -33.5s32.5 -50.166 32.5 -83.499v-118c0 -32.667 -10 -60 -30 -82c-22 -23.333 -50.667 -35 -86 -35h-349
zM518 352v118h-349v-118h349zM371 639h-82l-107 110h108z" />
    <glyph glyph-name="eacute" unicode="&#xe9;" horiz-adv-x="760" 
d="M169 235v-118h435v-117h-435c-34 0 -61.833 11.167 -83.5 33.5s-32.5 50.166 -32.5 83.499v353c0 34 10 62 30 84s48.667 33 86 33h349c34 0 61.833 -11.167 83.5 -33.5s32.5 -50.166 32.5 -83.499v-118c0 -32.667 -10 -60 -30 -82c-22 -23.333 -50.667 -35 -86 -35h-349
zM518 352v118h-349v-118h349zM486 749l-108 -110h-81l81 110h108z" />
    <glyph glyph-name="ecircumflex" unicode="&#xea;" horiz-adv-x="760" 
d="M169 235v-118h435v-117h-435c-34 0 -61.833 11.167 -83.5 33.5s-32.5 50.166 -32.5 83.499v353c0 34 10 62 30 84s48.667 33 86 33h349c34 0 61.833 -11.167 83.5 -33.5s32.5 -50.166 32.5 -83.499v-118c0 -32.667 -10 -60 -30 -82c-22 -23.333 -50.667 -35 -86 -35h-349
zM518 352v118h-349v-118h349zM469 644h-83l-54 65l-52 -65h-83l72 102h128z" />
    <glyph glyph-name="edieresis" unicode="&#xeb;" horiz-adv-x="760" 
d="M169 235v-118h435v-117h-435c-34 0 -61.833 11.167 -83.5 33.5s-32.5 50.166 -32.5 83.499v353c0 34 10 62 30 84s48.667 33 86 33h349c34 0 61.833 -11.167 83.5 -33.5s32.5 -50.166 32.5 -83.499v-118c0 -32.667 -10 -60 -30 -82c-22 -23.333 -50.667 -35 -86 -35h-349
zM518 352v118h-349v-118h349zM421 654c-14 0 -26.332 3.99902 -36.999 11.999s-16 18.667 -16 32c0 12 5.16699 22.333 15.5 31s22.833 13 37.5 13c13.333 0 25.166 -4.16699 35.499 -12.5s15.5 -19.166 15.5 -32.499c0 -12 -5 -22.167 -15 -30.5s-22 -12.5 -36 -12.5z
M252.001 653.999c-13.333 0 -25.333 3.99902 -36 11.999s-16 18.667 -16 32c0 12.667 5.16699 23.167 15.5 31.5s22.5 12.5 36.5 12.5c13.333 0 25.333 -4.16699 36 -12.5s16 -19.166 16 -32.499c0 -12 -5 -22.167 -15 -30.5s-22.333 -12.5 -37 -12.5z" />
    <glyph glyph-name="igrave" unicode="&#xec;" horiz-adv-x="244" 
d="M170 0h-116v587h116v-587zM163 639h-82l-107 110h108z" />
    <glyph glyph-name="iacute" unicode="&#xed;" horiz-adv-x="244" 
d="M170 0h-116v587h116v-587zM258 749l-107 -110h-82l81 110h108z" />
    <glyph glyph-name="icircumflex" unicode="&#xee;" horiz-adv-x="244" 
d="M170 0h-116v587h116v-587zM251 644h-83l-54 65l-52 -65h-83l72 102h128z" />
    <glyph glyph-name="idieresis" unicode="&#xef;" horiz-adv-x="244" 
d="M170 0h-116v587h116v-587zM203 654c-14 0 -26.166 3.99902 -36.499 11.999s-15.5 18.667 -15.5 32c0 12 5.16699 22.333 15.5 31s22.5 13 36.5 13c13.333 0 25.166 -4.16699 35.499 -12.5s15.5 -19.166 15.5 -32.499c0 -12 -5 -22.167 -15 -30.5s-22 -12.5 -36 -12.5z
M35.001 653.999c-14 0 -26.333 3.99902 -37 11.999s-16 18.667 -16 32c0 12.667 5.16699 23.167 15.5 31.5s22.5 12.5 36.5 12.5c13.333 0 25.333 -4.16699 36 -12.5s16 -19.166 16 -32.499c0 -12 -5 -22.167 -15 -30.5s-22 -12.5 -36 -12.5z" />
    <glyph glyph-name="ntilde" unicode="&#xf1;" horiz-adv-x="713" 
d="M604 0l-116 -0.000976562v470h-319v-470h-116v587h435c62.667 0 100 -26.667 112 -80c2.66699 -11.333 4 -23.666 4 -36.999v-470zM479 748.999c0 -27.333 -6.99805 -50.333 -20.998 -69c-16.667 -20.667 -39.667 -31 -69 -31c-22 0 -50 9 -84 27s-57 27 -69 27
c-14.667 0 -25.334 -6 -32.001 -18c-4 -6 -8 -17.667 -12 -35h-15c2 66 31.667 99 89 99c22 0 49.667 -8.83301 83 -26.5s56.666 -26.5 69.999 -26.5c23.333 0 38.333 17.667 45 53h15z" />
    <glyph glyph-name="ograve" unicode="&#xf2;" 
d="M506 0l-349 -0.000976562c-62 0 -99.333 26 -112 78c-2.66699 12 -4 25 -4 39v353c0 30.667 10.833 57.834 32.5 81.501s49.5 35.5 83.5 35.5h349c32.667 0 60.167 -11.5 82.5 -34.5s33.5 -50.5 33.5 -82.5v-353c0 -78 -38.667 -117 -116 -117zM506 116.999v353h-349
v-353h349zM371 638.999h-82l-107 110h108z" />
    <glyph glyph-name="oacute" unicode="&#xf3;" 
d="M506 0l-349 -0.000976562c-62 0 -99.333 26 -112 78c-2.66699 12 -4 25 -4 39v353c0 30.667 10.833 57.834 32.5 81.501s49.5 35.5 83.5 35.5h349c32.667 0 60.167 -11.5 82.5 -34.5s33.5 -50.5 33.5 -82.5v-353c0 -78 -38.667 -117 -116 -117zM506 116.999v353h-349
v-353h349zM486 748.999l-108 -110h-81l81 110h108z" />
    <glyph glyph-name="ocircumflex" unicode="&#xf4;" 
d="M506 0l-349 -0.000976562c-62 0 -99.333 26 -112 78c-2.66699 12 -4 25 -4 39v353c0 30.667 10.833 57.834 32.5 81.501s49.5 35.5 83.5 35.5h349c32.667 0 60.167 -11.5 82.5 -34.5s33.5 -50.5 33.5 -82.5v-353c0 -78 -38.667 -117 -116 -117zM506 116.999v353h-349
v-353h349zM469 643.999h-83l-54 65l-52 -65h-83l72 102h128z" />
    <glyph glyph-name="otilde" unicode="&#xf5;" 
d="M506 0l-349 -0.000976562c-62 0 -99.333 26 -112 78c-2.66699 12 -4 25 -4 39v353c0 30.667 10.833 57.834 32.5 81.501s49.5 35.5 83.5 35.5h349c32.667 0 60.167 -11.5 82.5 -34.5s33.5 -50.5 33.5 -82.5v-353c0 -78 -38.667 -117 -116 -117zM506 116.999v353h-349
v-353h349zM489 748.999c0 -27.333 -6.99902 -50.333 -20.999 -69c-16.667 -20.667 -39.667 -31 -69 -31c-22 0 -50 9 -84 27s-57 27 -69 27c-14.667 0 -25.334 -6 -32.001 -18c-4 -6 -8 -17.667 -12 -35h-15c1.33301 66 31 99 89 99c21.333 0 48.833 -8.83301 82.5 -26.5
s57.167 -26.5 70.5 -26.5c23.333 0 38.333 17.667 45 53h15z" />
    <glyph glyph-name="odieresis" unicode="&#xf6;" 
d="M506 0l-349 -0.000976562c-62 0 -99.333 26 -112 78c-2.66699 12 -4 25 -4 39v353c0 30.667 10.833 57.834 32.5 81.501s49.5 35.5 83.5 35.5h349c32.667 0 60.167 -11.5 82.5 -34.5s33.5 -50.5 33.5 -82.5v-353c0 -78 -38.667 -117 -116 -117zM506 116.999v353h-349
v-353h349zM430 653.999c-13.333 0 -25.333 3.99902 -36 11.999s-16 18.667 -16 32c0 12 5.16699 22.333 15.5 31s22.5 13 36.5 13c13.333 0 25.333 -4.16699 36 -12.5s16 -19.166 16 -32.499c0 -12 -5.16699 -22.167 -15.5 -30.5s-22.5 -12.5 -36.5 -12.5zM262 653.998
c-13.333 0 -25.333 3.99902 -36 11.999s-16 18.667 -16 32c0 12.667 5.16699 23.167 15.5 31.5s22.5 12.5 36.5 12.5c13.333 0 25.333 -4.16699 36 -12.5s16 -19.166 16 -32.499c0 -12 -5.16699 -22.167 -15.5 -30.5s-22.5 -12.5 -36.5 -12.5z" />
    <glyph glyph-name="oslash" unicode="&#xf8;" 
d="M170 0c-77.333 0 -115.998 39 -115.998 117v353c0 16 3 31 9 45s14.167 26.333 24.5 37s22.5 19.167 36.5 25.5s29.333 9.5 46 9.5h348c16 0 31.167 -3.16699 45.5 -9.5s26.666 -14.833 36.999 -25.5s18.666 -23 24.999 -37s9.5 -29 9.5 -45v-353
c0 -78 -39 -117 -117 -117h-348zM241.002 117l162 353h-233v-353h71zM451.002 470l-162 -353h229v353h-67z" />
    <glyph glyph-name="ugrave" unicode="&#xf9;" horiz-adv-x="762" 
d="M519 0l-347.999 0.00195312c-34.667 0 -62.834 11.167 -84.501 33.5s-32.5 50.166 -32.5 83.499v470h117v-470h348v470h116v-470c0 -32.667 -10.333 -60.334 -31 -83.001s-49 -34 -85 -34zM410.001 639.002h-81l-107 110h107z" />
    <glyph glyph-name="uacute" unicode="&#xfa;" horiz-adv-x="762" 
d="M519 0l-347.999 0.00195312c-34.667 0 -62.834 11.167 -84.501 33.5s-32.5 50.166 -32.5 83.499v470h117v-470h348v470h116v-470c0 -32.667 -10.333 -60.334 -31 -83.001s-49 -34 -85 -34zM486.001 749.002l-108 -110h-81l81 110h108z" />
    <glyph glyph-name="ucircumflex" unicode="&#xfb;" horiz-adv-x="762" 
d="M519 0l-347.999 0.00195312c-34.667 0 -62.834 11.167 -84.501 33.5s-32.5 50.166 -32.5 83.499v470h117v-470h348v470h116v-470c0 -32.667 -10.333 -60.334 -31 -83.001s-49 -34 -85 -34zM479.001 644.002h-83l-54 65l-52 -65h-83l71 102h129z" />
    <glyph glyph-name="udieresis" unicode="&#xfc;" horiz-adv-x="762" 
d="M519 0l-347.999 0.00195312c-34.667 0 -62.834 11.167 -84.501 33.5s-32.5 50.166 -32.5 83.499v470h117v-470h348v470h116v-470c0 -32.667 -10.333 -60.334 -31 -83.001s-49 -34 -85 -34zM430.001 654.002c-13.333 0 -25.333 3.99902 -36 11.999s-16 18.667 -16 32
c0 12 5.16699 22.333 15.5 31s22.5 13 36.5 13c13.333 0 25.333 -4.16699 36 -12.5s16 -19.166 16 -32.499c0 -12 -5.16699 -22.167 -15.5 -30.5s-22.5 -12.5 -36.5 -12.5zM262.001 654.001c-13.333 0 -25.333 3.99902 -36 11.999s-16 18.667 -16 32
c0 12.667 5.16699 23.167 15.5 31.5s22.5 12.5 36.5 12.5c13.333 0 25.333 -4.16699 36 -12.5s16 -19.166 16 -32.499c0 -12 -5.16699 -22.167 -15.5 -30.5s-22.5 -12.5 -36.5 -12.5z" />
    <glyph glyph-name="OE" unicode="&#x152;" horiz-adv-x="1125" 
d="M501 0l-348.001 -0.000976562c-62.667 0 -100 26 -112 78c-2.66699 12 -4 25 -4 39v353c0 30.667 10.833 57.834 32.5 81.501s49.5 35.5 83.5 35.5h348c32.667 0 60.334 -11.5 83.001 -34.5s34 -50.5 34 -82.5v-353c0 -78 -39 -117 -117 -117zM500.999 116.999v353h-348
v-353h348zM620.999 234.999v-118h435v-117h-435c-34 0 -61.833 11.167 -83.5 33.5s-32.5 50.166 -32.5 83.499v353c0 34 10 62 30 84s48.667 33 86 33h349c34 0 61.833 -11.167 83.5 -33.5s32.5 -50.166 32.5 -83.499v-118c0 -32.667 -10 -60 -30 -82
c-22 -23.333 -50.667 -35 -86 -35h-349zM969.999 351.999v118h-349v-118h349z" />
    <glyph glyph-name="oe" unicode="&#x153;" horiz-adv-x="1125" 
d="M501 0l-348.001 -0.000976562c-62.667 0 -100 26 -112 78c-2.66699 12 -4 25 -4 39v353c0 30.667 10.833 57.834 32.5 81.501s49.5 35.5 83.5 35.5h348c32.667 0 60.334 -11.5 83.001 -34.5s34 -50.5 34 -82.5v-353c0 -78 -39 -117 -117 -117zM500.999 116.999v353h-348
v-353h348zM620.999 234.999v-118h436v-117h-436c-34 0 -61.833 11.167 -83.5 33.5s-32.5 50.166 -32.5 83.499v353c0 34 10 62 30 84s48.667 33 86 33h349c34 0 61.833 -11.167 83.5 -33.5s32.5 -50.166 32.5 -83.499v-118c0 -32.667 -10 -60 -30 -82
c-22 -23.333 -50.667 -35 -86 -35h-349zM969.999 351.999v118h-349v-118h349z" />
    <glyph glyph-name="circumflex" unicode="&#x2c6;" horiz-adv-x="583" 
d="M459 644h-83l-54 65l-52 -65h-83l72 102h128z" />
    <glyph glyph-name="ring" unicode="&#x2da;" horiz-adv-x="565" 
d="M326 607c-24.667 0 -46.165 8.33203 -64.498 24.999s-27.5 37.334 -27.5 62.001c0 23.333 8.83301 43.5 26.5 60.5s39.5 25.5 65.5 25.5c25.333 0 47.166 -8.33301 65.499 -25s27.5 -37 27.5 -61s-8.83301 -44.5 -26.5 -61.5s-39.834 -25.5 -66.501 -25.5z
M326.002 748.999c-16.667 0 -30.667 -5.5 -42 -16.5s-17 -23.833 -17 -38.5c0 -16 5.83301 -29.167 17.5 -39.5s25.5 -15.5 41.5 -15.5c16.667 0 30.667 5.5 42 16.5s17 23.833 17 38.5c0 15.333 -5.83301 28.333 -17.5 39s-25.5 16 -41.5 16z" />
    <glyph glyph-name="tilde" unicode="&#x2dc;" horiz-adv-x="551" 
d="M469 749c0 -27.333 -7.00098 -50.333 -21.001 -69c-16 -20.667 -39 -31 -69 -31c-21.333 0 -49.166 9 -83.499 27s-57.5 27 -69.5 27c-14.667 0 -25.334 -6 -32.001 -18c-4 -6 -8 -17.667 -12 -35h-15c2 66 31.667 99 89 99c22 0 49.667 -8.83301 83 -26.5
s57 -26.5 71 -26.5c22.667 0 37.334 17.667 44.001 53h15z" />
    <glyph glyph-name="endash" unicode="&#x2013;" horiz-adv-x="378" 
d="M245 236h-214v115h214v-115z" />
    <glyph glyph-name="emdash" unicode="&#x2014;" horiz-adv-x="586" 
d="M380 235h-349v117h349v-117z" />
    <glyph glyph-name="quoteleft" unicode="&#x2018;" horiz-adv-x="199" 
d="M165 715c-29.333 -15.333 -46.332 -33.6641 -50.999 -54.9971h8c26 0 43 -17 51 -51c2 -6.66699 3 -13.334 3 -20.001c0 -22 -7.83301 -41.167 -23.5 -57.5s-35.834 -24.5 -60.501 -24.5c-41.333 0 -66.666 19.333 -75.999 58c-2 7.33301 -3 15.666 -3 24.999
c0 37.333 13.333 68.666 40 93.999c19.333 18 50.666 36 93.999 54z" />
    <glyph glyph-name="quoteright" unicode="&#x2019;" horiz-adv-x="205" 
d="M47 508l-18.001 22.998c29.333 15.333 46.333 33.666 51 54.999h-8c-26 0 -43.333 17 -52 51c-1.33301 6.66699 -2 13.334 -2 20.001c0 22 7.83301 41.167 23.5 57.5s35.834 24.5 60.501 24.5c41.333 0 66.666 -19.333 75.999 -58c1.33301 -7.33301 2 -15.666 2 -24.999
c0 -37.333 -13 -68.666 -39 -93.999c-19.333 -18 -50.666 -36 -93.999 -54z" />
    <glyph glyph-name="quotesinglbase" unicode="&#x201a;" horiz-adv-x="205" 
d="M47 -78l-18.001 22.998c29.333 15.333 46.333 33.666 51 54.999h-8c-26 0 -43.333 17 -52 51c-1.33301 6.66699 -2 13.334 -2 20.001c0 22 7.83301 41.167 23.5 57.5s35.834 24.5 60.501 24.5c41.333 0 66.666 -19.333 75.999 -58c1.33301 -7.33301 2 -15.666 2 -24.999
c0 -37.333 -13 -68.666 -39 -93.999c-19.333 -18 -50.666 -36 -93.999 -54z" />
    <glyph glyph-name="quotedblleft" unicode="&#x201c;" horiz-adv-x="372" 
d="M343 715c-28.667 -15.333 -45.666 -33.6641 -50.999 -54.9971h8c26.667 0 44 -17 52 -51c1.33301 -6.66699 2 -13.334 2 -20.001c0 -22 -7.83301 -41.167 -23.5 -57.5s-35.834 -24.5 -60.501 -24.5c-41.333 0 -66.666 19.333 -75.999 58
c-1.33301 7.33301 -2 15.666 -2 24.999c0 37.333 13 68.666 39 93.999c19.333 18 50.666 36 93.999 54zM165.001 715.002c-29.333 -15.333 -46.332 -33.6641 -50.999 -54.9971h8c26 0 43 -17 51 -51c2 -6.66699 3 -13.334 3 -20.001c0 -22 -7.83301 -41.167 -23.5 -57.5
s-35.834 -24.5 -60.501 -24.5c-41.333 0 -66.666 19.333 -75.999 58c-2 7.33301 -3 15.666 -3 24.999c0 37.333 13.333 68.666 40 93.999c19.333 18 50.666 36 93.999 54z" />
    <glyph glyph-name="quotedblright" unicode="&#x201d;" horiz-adv-x="377" 
d="M47 508l-18.001 22.998c29.333 15.333 46.333 33.666 51 54.999h-8c-26 0 -43.333 17 -52 51c-1.33301 6.66699 -2 13.334 -2 20.001c0 22 7.83301 41.167 23.5 57.5s35.834 24.5 60.501 24.5c41.333 0 66.666 -19.333 75.999 -58c1.33301 -7.33301 2 -15.666 2 -24.999
c0 -37.333 -13 -68.666 -39 -93.999c-19.333 -18 -50.666 -36 -93.999 -54zM224.999 507.998l-18 22.998c29.333 15.333 46.333 33.666 51 54.999h-8c-26 0 -43 17 -51 51c-2 6.66699 -3 13.334 -3 20.001c0 22 8 41.167 24 57.5s36 24.5 60 24.5
c41.333 0 66.666 -19.333 75.999 -58c2 -7.33301 3 -15.666 3 -24.999c0 -37.333 -13.333 -68.666 -40 -93.999c-19.333 -18 -50.666 -36 -93.999 -54z" />
    <glyph glyph-name="quotedblbase" unicode="&#x201e;" horiz-adv-x="377" 
d="M47 -78l-18.001 22.998c29.333 15.333 46.333 33.666 51 54.999h-8c-26 0 -43.333 17 -52 51c-1.33301 6.66699 -2 13.334 -2 20.001c0 22 7.83301 41.167 23.5 57.5s35.834 24.5 60.501 24.5c41.333 0 66.666 -19.333 75.999 -58c1.33301 -7.33301 2 -15.666 2 -24.999
c0 -37.333 -13 -68.666 -39 -93.999c-19.333 -18 -50.666 -36 -93.999 -54zM224.999 -78.002l-18 22.998c29.333 15.333 46.333 33.666 51 54.999h-8c-26 0 -43 17 -51 51c-2 6.66699 -3 13.334 -3 20.001c0 22 8 41.167 24 57.5s36 24.5 60 24.5
c41.333 0 66.666 -19.333 75.999 -58c2 -7.33301 3 -15.666 3 -24.999c0 -37.333 -13.333 -68.666 -40 -93.999c-19.333 -18 -50.666 -36 -93.999 -54z" />
    <glyph glyph-name="bullet" unicode="&#x2022;" horiz-adv-x="474" 
d="M452 122h-439v459h439v-459z" />
    <glyph glyph-name="ellipsis" unicode="&#x2026;" horiz-adv-x="1790" 
d="M394 -22c-22 0 -40.833 7.99902 -56.5 23.999s-23.5 34.667 -23.5 56c0 22 7.5 41 22.5 57s34.167 24 57.5 24c22 0 40.833 -7.83301 56.5 -23.5s23.5 -34.5 23.5 -56.5c0 -21.333 -7.66699 -40.166 -23 -56.499s-34.333 -24.5 -57 -24.5zM895 -22.001
c-22 0 -40.833 7.99902 -56.5 23.999s-23.5 34.667 -23.5 56c0 22 7.5 41 22.5 57s34.167 24 57.5 24c22 0 40.833 -7.83301 56.5 -23.5s23.5 -34.5 23.5 -56.5c0 -21.333 -7.66699 -40.166 -23 -56.499s-34.333 -24.5 -57 -24.5zM1396 -22.002
c-22 0 -40.833 7.99902 -56.5 23.999s-23.5 34.667 -23.5 56c0 22 7.5 41 22.5 57s34.167 24 57.5 24c22 0 40.833 -7.83301 56.5 -23.5s23.5 -34.5 23.5 -56.5c0 -21.333 -7.66699 -40.166 -23 -56.499s-34.333 -24.5 -57 -24.5z" />
    <glyph glyph-name="guilsinglleft" unicode="&#x2039;" horiz-adv-x="230" 
d="M95 302l102 -48v-60l-156 77v59l156 81v-62z" />
    <glyph glyph-name="guilsinglright" unicode="&#x203a;" horiz-adv-x="230" 
d="M143 304l-102 47v60l156 -77v-59l-156 -81v62z" />
    <glyph glyph-name="Euro" unicode="&#x20ac;" horiz-adv-x="650" 
d="M154 400l337 -0.000976562l-46 -70h-291v-68h245l-46 -69h-199v-76h445v-117h-445c-62.667 0 -100 26 -112 78c-2.66699 12 -4 25 -4 39v76h-35v69h35v68h-35v70h35v70c0 30.667 10.833 57.834 32.5 81.501s49.5 35.5 83.5 35.5h462l-78 -117h-384v-70z" />
    <glyph glyph-name="trademark" unicode="&#x2122;" horiz-adv-x="561" 
d="M173 484v-223h-59v223h-71v54h199v-54h-69zM448 414l-60 -154l-66 160v-158h-55v277h67l53 -143l52 143h65v-277h-56v152z" />
    </font>
</defs>
</svg>
